# Blender v2.77 (sub 0) OBJ File: ''
# www.blender.org
mtllib Level1.mtl
o Cube_Cube.001
v -0.500000 -2.600000 6.736350
v -0.500000 -2.400000 6.736350
v -0.500000 -2.600000 4.263650
v -0.500000 -2.400000 4.263650
v 0.500000 -2.600000 6.736350
v 0.500000 -2.400000 6.736350
v 0.500000 -2.600000 4.263650
v 0.500000 -2.400000 4.263650
vn -1.000000 0.000000 0.000000
vn 0.000000 0.000000 -1.000000
vn 1.000000 0.000000 0.000000
vn 0.000000 0.000000 1.000000
vn 0.000000 -1.000000 0.000000
vn 0.000000 1.000000 0.000000
usemtl Material.002
s off
f 2//1 4//1 3//1 1//1
f 4//2 8//2 7//2 3//2
f 8//3 6//3 5//3 7//3
f 6//4 2//4 1//4 5//4
f 1//5 3//5 7//5 5//5
f 6//6 8//6 4//6 2//6
o Cube.001_Cube.002
v -0.500000 -2.596463 6.711186
v -0.500000 -2.596463 6.911187
v -0.500000 5.173740 6.711187
v -0.500000 5.173740 6.911187
v 0.500000 -2.596463 6.711186
v 0.500000 -2.596463 6.911187
v 0.500000 5.173740 6.711187
v 0.500000 5.173740 6.911187
vn -1.000000 0.000000 0.000000
vn 0.000000 1.000000 0.000000
vn 1.000000 0.000000 0.000000
vn 0.000000 -1.000000 0.000000
vn 0.000000 0.000000 -1.000000
vn 0.000000 -0.000000 1.000000
usemtl Material.002
s off
f 10//7 12//7 11//7 9//7
f 12//8 16//8 15//8 11//8
f 16//9 14//9 13//9 15//9
f 14//10 10//10 9//10 13//10
f 9//11 11//11 15//11 13//11
f 14//12 16//12 12//12 10//12
o Cube.002_Cube.003
v -0.500000 -2.596463 4.219147
v -0.500000 -2.596463 4.419147
v -0.500000 5.173740 4.219148
v -0.500000 5.173740 4.419148
v 0.500000 -2.596463 4.219147
v 0.500000 -2.596463 4.419147
v 0.500000 5.173740 4.219148
v 0.500000 5.173740 4.419148
vn -1.000000 0.000000 0.000000
vn 0.000000 1.000000 0.000000
vn 1.000000 0.000000 0.000000
vn 0.000000 -1.000000 0.000000
vn 0.000000 0.000000 -1.000000
vn 0.000000 -0.000000 1.000000
usemtl Material.002
s off
f 18//13 20//13 19//13 17//13
f 20//14 24//14 23//14 19//14
f 24//15 22//15 21//15 23//15
f 22//16 18//16 17//16 21//16
f 17//17 19//17 23//17 21//17
f 22//18 24//18 20//18 18//18
o Cube.003_Cube.004
v -0.500000 4.975422 4.400176
v -0.500000 5.175422 4.400176
v -0.500000 4.975422 -9.072966
v -0.500000 5.175422 -9.072966
v 0.500000 4.975422 4.400176
v 0.500000 5.175422 4.400176
v 0.500000 4.975422 -9.072966
v 0.500000 5.175422 -9.072966
vn -1.000000 0.000000 0.000000
vn 0.000000 0.000000 -1.000000
vn 1.000000 0.000000 0.000000
vn 0.000000 0.000000 1.000000
vn 0.000000 -1.000000 0.000000
vn 0.000000 1.000000 0.000000
usemtl Material.002
s off
f 26//19 28//19 27//19 25//19
f 28//20 32//20 31//20 27//20
f 32//21 30//21 29//21 31//21
f 30//22 26//22 25//22 29//22
f 25//23 27//23 31//23 29//23
f 30//24 32//24 28//24 26//24
o Cube.005_Cube.006
v -0.500000 5.016894 -9.092576
v -0.500000 5.016894 -8.892575
v -0.500000 8.394814 -9.092576
v -0.500000 8.394814 -8.892575
v 0.500000 5.016894 -9.092576
v 0.500000 5.016894 -8.892575
v 0.500000 8.394814 -9.092576
v 0.500000 8.394814 -8.892575
vn -1.000000 0.000000 0.000000
vn 0.000000 1.000000 0.000000
vn 1.000000 0.000000 0.000000
vn 0.000000 -1.000000 0.000000
vn 0.000000 0.000000 -1.000000
vn 0.000000 0.000000 1.000000
usemtl Material.002
s off
f 34//25 36//25 35//25 33//25
f 36//26 40//26 39//26 35//26
f 40//27 38//27 37//27 39//27
f 38//28 34//28 33//28 37//28
f 33//29 35//29 39//29 37//29
f 38//30 40//30 36//30 34//30
o Cube.006_Cube.007
v -0.500000 7.834660 -7.326024
v -0.500000 7.683534 -7.195025
v -0.500000 8.567874 -6.480155
v -0.500000 8.416747 -6.349156
v 0.500000 7.834660 -7.326024
v 0.500000 7.683534 -7.195025
v 0.500000 8.567874 -6.480155
v 0.500000 8.416747 -6.349156
vn -1.000000 0.000000 0.000000
vn 0.000000 0.655000 0.755600
vn 1.000000 0.000000 0.000000
vn 0.000000 -0.655000 -0.755600
vn 0.000000 0.755600 -0.655000
vn 0.000000 -0.755600 0.655000
usemtl Material.003
s off
f 42//31 44//31 43//31 41//31
f 44//32 48//32 47//32 43//32
f 48//33 46//33 45//33 47//33
f 46//34 42//34 41//34 45//34
f 41//35 43//35 47//35 45//35
f 46//36 48//36 44//36 42//36
o Cube.004_Cube.011
v -0.500000 8.366679 1.365810
v -0.500000 8.566680 1.365810
v -0.500000 8.366679 -6.038599
v -0.500000 8.566680 -6.038599
v 0.500000 8.366679 1.365810
v 0.500000 8.566680 1.365810
v 0.500000 8.366679 -6.038599
v 0.500000 8.566680 -6.038599
vn -1.000000 0.000000 0.000000
vn 0.000000 0.000000 -1.000000
vn 1.000000 0.000000 0.000000
vn 0.000000 0.000000 1.000000
vn 0.000000 -1.000000 0.000000
vn 0.000000 1.000000 0.000000
usemtl Material.004
s off
f 50//37 52//37 51//37 49//37
f 52//38 56//38 55//38 51//38
f 56//39 54//39 53//39 55//39
f 54//40 50//40 49//40 53//40
f 49//41 51//41 55//41 53//41
f 54//42 56//42 52//42 50//42
