# Blender v2.77 (sub 0) OBJ File: ''
# www.blender.org
mtllib chest.mtl
o Cube_Cube.002
v -0.500000 -0.500000 0.500000
v -0.500000 0.500000 0.500000
v -0.500000 -0.500000 -0.500000
v -0.500000 0.500000 -0.500000
v 0.500000 -0.500000 0.500000
v 0.500000 0.500000 0.500000
v 0.500000 -0.500000 -0.500000
v 0.500000 0.500000 -0.500000
vt 0.000200 0.000200
vt 0.333134 0.000200
vt 0.333134 0.333134
vt 0.000200 0.333134
vt 0.000200 0.666467
vt 0.000200 0.333533
vt 0.333134 0.333533
vt 0.333134 0.666467
vt 0.999800 0.333134
vt 0.666866 0.333134
vt 0.666866 0.000200
vt 0.999800 0.000200
vt 0.666467 0.333134
vt 0.333533 0.333134
vt 0.333533 0.000200
vt 0.666467 0.000200
vt 0.000200 0.999800
vt 0.000200 0.666866
vt 0.333134 0.666866
vt 0.333134 0.999800
vt 0.999800 0.333533
vt 0.999800 0.666467
vt 0.666866 0.666467
vt 0.666866 0.333533
vn -1.000000 0.000000 0.000000
vn 0.000000 0.000000 -1.000000
vn 1.000000 0.000000 0.000000
vn 0.000000 0.000000 1.000000
vn 0.000000 -1.000000 0.000000
vn 0.000000 1.000000 0.000000
usemtl Material.010
s off
f 2/1/1 4/2/1 3/3/1 1/4/1
f 4/5/2 8/6/2 7/7/2 3/8/2
f 8/9/3 6/10/3 5/11/3 7/12/3
f 6/13/4 2/14/4 1/15/4 5/16/4
f 1/17/5 3/18/5 7/19/5 5/20/5
f 6/21/6 8/22/6 4/23/6 2/24/6
