# Blender v2.77 (sub 0) OBJ File: ''
# www.blender.org
mtllib door.mtl
o Mezar
v 0.000000 -7.962587 0.499999
v 0.000000 -0.462587 0.500000
v -3.500000 -0.462587 0.500000
v -3.500000 -7.962587 0.499999
v 2.625000 7.237413 0.500001
v 2.625000 7.237413 -0.499999
v 1.750000 7.437413 -0.499999
v 1.750000 7.437413 0.500001
v 0.875000 7.587413 0.500001
v 0.875000 7.587413 -0.499999
v 0.000000 7.637414 -0.499999
v 0.000000 7.637414 0.500001
v -0.875000 7.587413 0.500001
v -0.875000 7.587413 -0.499999
v -1.750000 7.437413 -0.499999
v -1.750000 7.437413 0.500001
v -2.625000 7.237413 0.500001
v -2.625000 7.237413 -0.499999
v -3.500000 6.937413 -0.499999
v -3.500000 6.937413 0.500001
v -3.500000 -0.462587 -0.500000
v -3.500000 -7.962587 -0.500001
v 3.500000 -7.962587 -0.500001
v 3.500000 -7.962587 0.499999
v 0.000000 -7.962587 -0.500001
v 3.500000 -0.462587 0.500000
v 3.500000 6.937413 0.500001
v 3.500000 -0.462587 -0.500000
v 3.500000 6.937413 -0.499999
v 0.000000 -0.462587 -0.500000
vt 0.218654 0.056692
vt 0.218679 0.483249
vt 0.000050 0.483249
vt 0.000025 0.056692
vt 0.382827 0.921225
vt 0.383003 0.977956
vt 0.328346 0.989457
vt 0.328170 0.932666
vt 0.273512 0.942205
vt 0.273688 1.000000
vt 0.219031 1.000000
vt 0.218855 0.943628
vt 0.164198 0.942205
vt 0.164374 1.000000
vt 0.109716 0.989457
vt 0.109540 0.932666
vt 0.054883 0.921225
vt 0.055059 0.977956
vt 0.000402 0.961663
vt 0.000402 0.904760
vt 1.000000 0.056697
vt 1.000000 0.483465
vt 0.937970 0.483676
vt 0.937970 0.056909
vt 0.437259 0.000000
vt 0.437541 0.056694
vt 0.218629 0.000000
vt 0.437682 0.483357
vt 0.000050 0.904326
vt 0.437682 0.904434
vt 0.500834 0.056909
vt 0.500834 0.483676
vt 0.500834 0.904754
vt 0.719776 0.057120
vt 0.719776 0.483888
vt 1.000000 0.904543
vt 0.937970 0.904754
vt 0.437660 0.904760
vt 0.437660 0.961663
vt 0.000000 0.000000
vt 0.555804 0.922036
vt 0.610462 0.933416
vt 0.665119 0.941952
vt 0.719776 0.944797
vt 0.774434 0.941952
vt 0.829091 0.933416
vt 0.883748 0.922036
vn 0.000000 -0.000000 1.000000
vn 0.222800 0.974900 0.000000
vn 0.057100 0.998400 0.000000
vn -0.169000 0.985600 0.000000
vn -0.324300 0.945900 0.000000
vn -1.000000 -0.000000 0.000000
vn 0.000000 -1.000000 0.000000
vn 1.000000 -0.000000 0.000000
vn 0.000000 0.000000 -1.000000
vn -0.222800 0.974900 0.000000
vn -0.057100 0.998400 0.000000
vn 0.169000 0.985600 0.000000
vn 0.324300 0.945900 0.000000
usemtl Mat
s off
f 1/1/1 2/2/1 3/3/1 4/4/1
f 5/5/2 6/6/2 7/7/2 8/8/2
f 9/9/3 10/10/3 11/11/3 12/12/3
f 13/13/4 14/14/4 15/15/4 16/16/4
f 17/17/5 18/18/5 19/19/5 20/20/5
f 4/21/6 3/22/6 21/23/6 22/24/6
f 23/25/7 24/26/7 1/1/7 25/27/7
f 24/26/1 26/28/1 2/2/1 1/1/1
f 2/2/1 17/17/1 20/29/1 3/3/1
f 2/2/1 16/16/1 17/17/1
f 2/2/1 13/13/1 16/16/1
f 2/2/1 12/12/1 13/13/1
f 2/2/1 9/9/1 12/12/1
f 2/2/1 8/8/1 9/9/1
f 2/2/1 5/5/1 8/8/1
f 26/28/1 27/30/1 5/5/1 2/2/1
f 23/31/8 28/32/8 26/28/8 24/26/8
f 28/32/8 29/33/8 27/30/8 26/28/8
f 25/34/9 30/35/9 28/32/9 23/31/9
f 3/22/6 20/36/6 19/37/6 21/23/6
f 16/16/10 15/15/10 18/18/10 17/17/10
f 12/12/11 11/11/11 14/14/11 13/13/11
f 8/8/12 7/7/12 10/10/12 9/9/12
f 27/38/13 29/39/13 6/6/13 5/5/13
f 25/27/7 1/1/7 4/4/7 22/40/7
f 22/24/9 21/23/9 30/35/9 25/34/9
f 30/35/9 6/41/9 29/33/9 28/32/9
f 30/35/9 7/42/9 6/41/9
f 30/35/9 10/43/9 7/42/9
f 30/35/9 11/44/9 10/43/9
f 30/35/9 14/45/9 11/44/9
f 30/35/9 15/46/9 14/45/9
f 30/35/9 18/47/9 15/46/9
f 21/23/9 19/37/9 18/47/9 30/35/9
